<mxfile host="app.diagrams.net" modified="2023-06-27T16:46:17.020Z" agent="Mozilla/5.0 (Windows NT 10.0; Win64; x64) AppleWebKit/537.36 (KHTML, like Gecko) Chrome/114.0.0.0 Safari/537.36" version="21.5.1" etag="pZTsrQ10J-NhV15xcfe2" type="github">
  <diagram name="Page-1" id="WwjM1zLTtl7VrDbiZtrv">
    <mxGraphModel>
      <root>
        <mxCell id="0" />
        <mxCell id="1" parent="0" />
      </root>
    </mxGraphModel>
  </diagram>
</mxfile>
